HIERARCHY
ROOT Hips
{
	OFFSET 0.000000 83.214638 0.000000
	CHANNELS 6 Xposition Yposition Zposition Xrotation Yrotation Zrotation
	JOINT Pelvis
	{
		OFFSET 0.000000 0.000000 0.000000
		CHANNELS 3 Xrotation Yrotation Zrotation
		JOINT LeftUpLeg
		{
			OFFSET 8.479700 -4.795502 -0.379100
			CHANNELS 3 Xrotation Yrotation Zrotation
			JOINT LeftLeg
			{
				OFFSET 0.024144 -32.555107 0.112900
				CHANNELS 3 Xrotation Yrotation Zrotation
				JOINT LeftFoot
				{
					OFFSET -0.024144 -32.638630 -3.012600
					CHANNELS 3 Xrotation Yrotation Zrotation
					JOINT LeftToeBase
					{
						OFFSET 0.970200 -13.225400 11.864200
						CHANNELS 3 Xrotation Yrotation Zrotation
						End Site
						{
							OFFSET 0.000000 12.319262 0.000000
						}
					}
					JOINT LFootTongue
					{
						OFFSET 1.142400 -1.059800 6.665200
						CHANNELS 3 Xrotation Yrotation Zrotation
						End Site
						{
							OFFSET 0.000000 12.319262 0.000000
						}
					}
				}
				JOINT LeftPantLeg
				{
					OFFSET 0.918482 -16.533964 -2.284700
					CHANNELS 3 Xrotation Yrotation Zrotation
					End Site
					{
						OFFSET 0.350399 24.744368 0.000000
					}
				}
			}
		}
		JOINT RightUpLeg
		{
			OFFSET -8.479700 -4.795502 -0.379100
			CHANNELS 3 Xrotation Yrotation Zrotation
			JOINT RightLeg
			{
				OFFSET -0.023144 -32.555092 0.112900
				CHANNELS 3 Xrotation Yrotation Zrotation
				JOINT RightFoot
				{
					OFFSET 0.023144 -32.638641 -3.012700
					CHANNELS 3 Xrotation Yrotation Zrotation
					JOINT RightToeBase
					{
						OFFSET -0.970200 -13.225400 11.864200
						CHANNELS 3 Xrotation Yrotation Zrotation
						End Site
						{
							OFFSET 0.000000 12.319244 0.000000
						}
					}
					JOINT RFootTongue
					{
						OFFSET -1.142200 -1.059800 6.665200
						CHANNELS 3 Xrotation Yrotation Zrotation
						End Site
						{
							OFFSET 0.000000 12.319243 0.000000
						}
					}
				}
				JOINT RightPantLeg
				{
					OFFSET -0.919482 -16.533978 -2.284800
					CHANNELS 3 Xrotation Yrotation Zrotation
					End Site
					{
						OFFSET -0.350400 24.744419 0.000000
					}
				}
			}
		}
	}
	JOINT Spine
	{
		OFFSET 0.000000 7.722000 1.166200
		CHANNELS 3 Xrotation Yrotation Zrotation
		JOINT Spine1
		{
			OFFSET 0.000000 12.024101 0.248800
			CHANNELS 3 Xrotation Yrotation Zrotation
			JOINT Spine2
			{
				OFFSET 0.000000 11.502998 -0.491200
				CHANNELS 3 Xrotation Yrotation Zrotation
				JOINT Neck
				{
					OFFSET 0.000000 18.430702 -3.123100
					CHANNELS 3 Xrotation Yrotation Zrotation
					JOINT Head
					{
						OFFSET 0.000000 9.051102 1.034000
						CHANNELS 3 Xrotation Yrotation Zrotation
						JOINT HairB
						{
							OFFSET 0.208400 24.786102 24.822300
							CHANNELS 3 Xrotation Yrotation Zrotation
							End Site
							{
								OFFSET 0.000000 32.263779 0.000000
							}
						}
						JOINT HairA
						{
							OFFSET -7.081100 24.428299 23.196600
							CHANNELS 3 Xrotation Yrotation Zrotation
							End Site
							{
								OFFSET 0.000000 32.263779 0.000000
							}
						}
						JOINT Hat
						{
							OFFSET 16.728800 15.048294 -15.439601
							CHANNELS 3 Xrotation Yrotation Zrotation
							End Site
							{
								OFFSET 0.000000 32.263779 0.000000
							}
						}
					}
				}
				JOINT LeftShoulder
				{
					OFFSET 6.197800 13.665199 -4.064700
					CHANNELS 3 Xrotation Yrotation Zrotation
					JOINT LeftArm
					{
						OFFSET 7.778100 -0.187103 -1.709300
						CHANNELS 3 Xrotation Yrotation Zrotation
						JOINT LeftForeArm
						{
							OFFSET 22.049376 0.000000 0.000000
							CHANNELS 3 Xrotation Yrotation Zrotation
							JOINT LeftHand
							{
								OFFSET 23.009392 0.000000 0.000000
								CHANNELS 3 Xrotation Yrotation Zrotation
								JOINT LeftHandThumb1
								{
									OFFSET 3.507191 -2.063065 3.133727
									CHANNELS 3 Xrotation Yrotation Zrotation
									JOINT LeftHandThumb2
									{
										OFFSET 3.101337 -1.790558 1.790558
										CHANNELS 3 Xrotation Yrotation Zrotation
										JOINT LeftHandThumb3
										{
											OFFSET 3.058640 -1.765907 1.765906
											CHANNELS 3 Xrotation Yrotation Zrotation
											End Site
											{
												OFFSET -0.415260 3.926476 -0.049563
											}
										}
									}
								}
								JOINT LeftHandIndex1
								{
									OFFSET 11.334419 -0.901459 3.706815
									CHANNELS 3 Xrotation Yrotation Zrotation
									JOINT LeftHandIndex2
									{
										OFFSET 3.283112 0.000000 0.000000
										CHANNELS 3 Xrotation Yrotation Zrotation
										JOINT LeftHandIndex3
										{
											OFFSET 3.323853 0.000000 0.000000
											CHANNELS 3 Xrotation Yrotation Zrotation
											End Site
											{
												OFFSET -1.135597 3.097809 0.402452
											}
										}
									}
								}
								JOINT LeftHandMiddle1
								{
									OFFSET 11.335861 0.000000 0.000000
									CHANNELS 3 Xrotation Yrotation Zrotation
									JOINT LeftHandMiddle2
									{
										OFFSET 3.410492 0.000000 0.000000
										CHANNELS 3 Xrotation Yrotation Zrotation
										JOINT LeftHandMiddle3
										{
											OFFSET 3.312172 0.000000 0.000000
											CHANNELS 3 Xrotation Yrotation Zrotation
											End Site
											{
												OFFSET -1.150200 3.080154 0.400270
											}
										}
									}
								}
								JOINT LeftHandRing1
								{
									OFFSET 11.514786 -0.013176 -3.003090
									CHANNELS 3 Xrotation Yrotation Zrotation
									JOINT LeftHandRing2
									{
										OFFSET 3.053307 0.000000 0.000000
										CHANNELS 3 Xrotation Yrotation Zrotation
										JOINT LeftHandRing3
										{
											OFFSET 3.295807 0.000000 0.000000
											CHANNELS 3 Xrotation Yrotation Zrotation
											End Site
											{
												OFFSET -1.281006 3.013344 0.375733
											}
										}
									}
								}
								JOINT LeftHandPinky1
								{
									OFFSET 10.518692 -0.960396 -5.730441
									CHANNELS 3 Xrotation Yrotation Zrotation
									JOINT LeftHandPinky2
									{
										OFFSET 2.861649 0.000000 0.000000
										CHANNELS 3 Xrotation Yrotation Zrotation
										JOINT LeftHandPinky3
										{
											OFFSET 2.863380 0.000000 0.000000
											CHANNELS 3 Xrotation Yrotation Zrotation
											End Site
											{
												OFFSET -0.843597 2.711159 0.369971
											}
										}
									}
								}
							}
							JOINT LSleeve
							{
								OFFSET 6.676277 -0.344902 -1.011730
								CHANNELS 3 Xrotation Yrotation Zrotation
								End Site
								{
									OFFSET 0.000000 14.885353 0.000000
								}
							}
						}
					}
				}
				JOINT RightShoulder
				{
					OFFSET -6.197800 13.665199 -4.064700
					CHANNELS 3 Xrotation Yrotation Zrotation
					JOINT RightArm
					{
						OFFSET -7.778100 -0.187103 -1.709300
						CHANNELS 3 Xrotation Yrotation Zrotation
						JOINT RightForeArm
						{
							OFFSET -22.049376 0.000000 0.000000
							CHANNELS 3 Xrotation Yrotation Zrotation
							JOINT RightHand
							{
								OFFSET -23.009392 0.000000 0.000000
								CHANNELS 3 Xrotation Yrotation Zrotation
								JOINT RightHandThumb1
								{
									OFFSET -3.507191 -2.063065 3.133727
									CHANNELS 3 Xrotation Yrotation Zrotation
									JOINT RightHandThumb2
									{
										OFFSET -3.101337 -1.790558 1.790558
										CHANNELS 3 Xrotation Yrotation Zrotation
										JOINT RightHandThumb3
										{
											OFFSET -3.058640 -1.765907 1.765906
											CHANNELS 3 Xrotation Yrotation Zrotation
											End Site
											{
												OFFSET 0.415260 3.926476 -0.049563
											}
										}
									}
								}
								JOINT RightHandIndex1
								{
									OFFSET -11.334419 -0.901459 3.706815
									CHANNELS 3 Xrotation Yrotation Zrotation
									JOINT RightHandIndex2
									{
										OFFSET -3.283112 0.000000 0.000000
										CHANNELS 3 Xrotation Yrotation Zrotation
										JOINT RightHandIndex3
										{
											OFFSET -3.323853 0.000000 0.000000
											CHANNELS 3 Xrotation Yrotation Zrotation
											End Site
											{
												OFFSET 1.135597 3.097809 0.402452
											}
										}
									}
								}
								JOINT RightHandMiddle1
								{
									OFFSET -11.335861 0.000000 0.000000
									CHANNELS 3 Xrotation Yrotation Zrotation
									JOINT RightHandMiddle2
									{
										OFFSET -3.410492 0.000000 0.000000
										CHANNELS 3 Xrotation Yrotation Zrotation
										JOINT RightHandMiddle3
										{
											OFFSET -3.312172 0.000000 0.000000
											CHANNELS 3 Xrotation Yrotation Zrotation
											End Site
											{
												OFFSET 1.150200 3.080154 0.400270
											}
										}
									}
								}
								JOINT RightHandRing1
								{
									OFFSET -11.514786 -0.013176 -3.003090
									CHANNELS 3 Xrotation Yrotation Zrotation
									JOINT RightHandRing2
									{
										OFFSET -3.053307 0.000000 0.000000
										CHANNELS 3 Xrotation Yrotation Zrotation
										JOINT RightHandRing3
										{
											OFFSET -3.295807 0.000000 0.000000
											CHANNELS 3 Xrotation Yrotation Zrotation
											End Site
											{
												OFFSET 1.281006 3.013344 0.375733
											}
										}
									}
								}
								JOINT RightHandPinky1
								{
									OFFSET -10.518692 -0.960396 -5.730441
									CHANNELS 3 Xrotation Yrotation Zrotation
									JOINT RightHandPinky2
									{
										OFFSET -2.861649 0.000000 0.000000
										CHANNELS 3 Xrotation Yrotation Zrotation
										JOINT RightHandPinky3
										{
											OFFSET -2.863380 0.000000 0.000000
											CHANNELS 3 Xrotation Yrotation Zrotation
											End Site
											{
												OFFSET 0.843597 2.711159 0.369971
											}
										}
									}
								}
							}
							JOINT RSleeve
							{
								OFFSET -6.676277 -0.344902 -1.011730
								CHANNELS 3 Xrotation Yrotation Zrotation
								End Site
								{
									OFFSET 0.000000 14.885353 0.000000
								}
							}
						}
					}
				}
				JOINT Backpack
				{
					OFFSET 0.000000 -2.471497 36.677502
					CHANNELS 3 Xrotation Yrotation Zrotation
					End Site
					{
						OFFSET 0.000000 20.427315 0.000000
					}
				}
				JOINT Hood
				{
					OFFSET 0.000000 18.754097 -10.431000
					CHANNELS 3 Xrotation Yrotation Zrotation
					JOINT Hood1
					{
						OFFSET 0.000000 -5.011002 -7.685901
						CHANNELS 3 Xrotation Yrotation Zrotation
						End Site
						{
							OFFSET 0.000000 9.175140 0.000000
						}
					}
				}
				JOINT LHoodieString
				{
					OFFSET 5.250500 16.397697 3.089900
					CHANNELS 3 Xrotation Yrotation Zrotation
					JOINT LHoodieString1
					{
						OFFSET 0.257700 -6.364304 3.694600
						CHANNELS 3 Xrotation Yrotation Zrotation
						JOINT LHoodieString2
						{
							OFFSET 0.000000 -9.643799 2.679100
							CHANNELS 3 Xrotation Yrotation Zrotation
							End Site
							{
								OFFSET 0.000000 10.009018 0.000000
							}
						}
					}
				}
				JOINT RHoodieString
				{
					OFFSET -5.250500 16.397697 3.089900
					CHANNELS 3 Xrotation Yrotation Zrotation
					JOINT RHoodieString1
					{
						OFFSET -0.257700 -6.364304 3.694600
						CHANNELS 3 Xrotation Yrotation Zrotation
						JOINT RHoodieString2
						{
							OFFSET 0.000000 -9.643799 2.679100
							CHANNELS 3 Xrotation Yrotation Zrotation
							End Site
							{
								OFFSET 0.000000 10.009018 0.000000
							}
						}
					}
				}
			}
			JOINT LBackpack_Strap
			{
				OFFSET 15.223200 -7.719803 -6.610900
				CHANNELS 3 Xrotation Yrotation Zrotation
				End Site
				{
					OFFSET 0.000000 16.040596 0.000000
				}
			}
			JOINT RBackpack_Strap
			{
				OFFSET -15.223000 -7.719803 -6.610900
				CHANNELS 3 Xrotation Yrotation Zrotation
				End Site
				{
					OFFSET 0.000000 16.040596 0.000000
				}
			}
		}
	}
	JOINT BoyFacialAnim_Joint
	{
		OFFSET 1.000000 -82.208099 -1.550900
		CHANNELS 3 Xrotation Yrotation Zrotation
		End Site
		{
			OFFSET 0.000000 30.012791 0.000000
		}
	}
}
MOTION
Frames: 4
Frame Time: 0.033333
4.161671 84.352684 -6.995659 86.268971 6.373575 -6.425918 -0.000000 -0.000000 0.000000 -72.328773 -3.697375 32.850392 99.636873 -5.497562 3.308977 44.264783 -17.700825 -29.957158 -0.000000 -0.000001 0.000004 -0.000000 -0.000001 0.000004 -0.000001 0.000004 -0.000001 -37.330795 -10.137687 -43.448951 37.772247 8.702633 -1.140526 15.187805 3.362477 36.228198 0.000000 -0.000000 0.000000 0.000000 -0.000000 0.000000 0.000001 0.000003 -0.000003 0.358734 -0.068649 3.371399 0.663879 -1.768009 -0.638160 0.649836 -1.774066 -0.639633 -12.870644 1.528652 -7.122083 8.035308 -5.863832 14.096917 0.000000 0.000000 0.000000 0.000000 0.000000 0.000000 0.000000 0.000000 0.000000 0.953525 -1.650113 -5.014566 -37.925551 37.830072 -19.799842 0.000019 -58.009958 0.000002 -30.182053 -19.001252 25.588221 -1.642769 -9.603341 4.164127 3.780282 -1.591702 0.393593 0.000001 -0.000001 -0.000000 0.913319 -16.954802 2.156166 0.095435 1.144734 -9.530808 -0.000001 -0.000002 -0.000002 -0.182782 2.242479 4.372647 0.095754 1.146636 -9.546803 0.000001 -0.000001 0.000002 -1.594179 16.369715 6.569744 0.095433 1.144729 -9.530804 -0.000000 0.000000 -0.000000 -3.551221 29.608296 8.979926 0.087666 -2.910416 -10.034488 -0.000001 0.000001 -0.000000 0.000001 0.000002 0.000002 -1.732623 -12.476581 -4.903542 -80.550470 13.839166 14.867529 -0.000005 50.622347 0.000001 -19.608005 5.194047 -23.148051 -2.015544 11.570700 -4.220051 4.531685 1.768215 0.013346 -0.000000 0.000001 -0.000002 -4.592160 18.579014 14.880766 0.551926 -2.719558 22.940386 -0.000001 -0.000001 0.000002 -0.495651 1.644833 12.016654 0.551881 -2.719443 22.939535 0.000002 0.000002 0.000000 1.632653 -8.612978 11.260089 0.551889 -2.719480 22.939674 -0.000000 0.000000 0.000002 5.019654 -25.820688 10.122602 0.551949 -2.719607 22.940913 -0.000000 -0.000003 0.000002 0.000000 0.000000 0.000000 -0.000000 -0.000000 0.000000 -0.000000 -0.000000 0.000000 -0.000000 -0.000000 0.000000 -0.000000 -0.000000 0.000000 -0.000000 -0.000000 0.000000 -0.000000 -0.000000 0.000000 -0.000000 -0.000000 0.000000 -0.000000 -0.000000 0.000000 -0.000000 -0.000000 0.000000 0.000000 0.000000 -0.000000 0.000000 0.000000 -0.000000 -0.000000 -0.000000 0.000000 
4.188325 84.218750 -7.038506 86.171702 6.281403 -6.505167 -0.000000 -0.000000 0.000000 -72.777967 -3.423500 32.954133 99.216113 -5.523309 3.089345 44.616346 -19.095174 -29.483700 -0.000001 0.000000 -0.000002 -0.000001 0.000000 -0.000002 0.000001 0.000001 -0.000001 -36.383943 -10.585958 -44.100175 38.044338 7.882498 -1.229157 16.464714 3.676987 36.233122 0.000000 0.000002 -0.000001 0.000000 0.000002 -0.000001 -0.000001 -0.000002 -0.000006 0.336765 0.040040 3.441586 0.647461 -1.607917 -0.580476 0.634273 -1.614643 -0.582018 -12.524950 1.812735 -7.654111 8.062202 -5.546094 14.118010 -0.000001 0.000000 0.000000 -0.000001 0.000000 0.000000 -0.000001 0.000000 0.000000 0.924068 -1.439528 -5.157182 -41.120952 37.522508 -16.410829 -0.000006 -57.247019 -0.000000 -31.942800 -19.871189 26.191568 -1.642769 -9.603343 4.164126 3.780284 -1.591699 0.393589 0.000000 0.000002 0.000001 1.070847 -17.008033 2.695530 0.085193 1.082005 -9.003920 -0.000001 0.000002 -0.000005 -0.202647 2.178610 4.887664 0.085499 1.083905 -9.019915 -0.000000 0.000002 0.000002 -1.522883 16.405684 6.317040 0.085193 1.082000 -9.003921 -0.000000 0.000000 -0.000000 -3.414088 29.652382 8.702556 0.076862 -2.973049 -9.508343 -0.000000 0.000001 0.000002 -0.000001 -0.000001 -0.000001 -1.624044 -11.291081 -5.532793 -79.833580 11.380795 15.222103 0.000001 51.796692 -0.000000 -19.146282 5.886546 -23.276819 -2.015542 11.570699 -4.220054 4.531684 1.768215 0.013347 0.000002 0.000001 0.000001 -4.638945 18.550481 15.027721 0.543650 -2.699898 22.765190 -0.000000 -0.000001 0.000002 -0.499687 1.626423 12.157709 0.543611 -2.699833 22.764315 -0.000000 0.000001 -0.000004 1.621488 -8.606081 11.185550 0.543605 -2.699827 22.764455 -0.000002 -0.000001 0.000000 4.983858 -25.818158 10.040428 0.543665 -2.699967 22.765709 -0.000000 -0.000002 -0.000000 -0.000000 0.000001 -0.000001 0.000000 0.000000 -0.000000 0.000000 0.000000 -0.000000 0.000000 0.000000 -0.000000 0.000000 0.000000 -0.000000 0.000000 0.000000 -0.000000 0.000000 0.000000 -0.000000 0.000000 0.000000 -0.000000 0.000000 0.000000 -0.000000 0.000000 0.000000 -0.000000 0.000000 0.000000 -0.000000 0.000000 0.000000 -0.000000 -0.000000 -0.000000 0.000000 
4.094055 84.101944 -6.944824 86.106480 6.120386 -6.464221 0.000000 -0.000000 0.000000 -72.643160 -2.850383 33.030634 97.405246 -5.785577 2.562292 44.611186 -19.376900 -28.342705 -0.000001 0.000001 0.000001 -0.000001 0.000001 0.000001 0.000003 0.000000 0.000000 -35.665083 -10.986662 -44.682811 38.407100 7.878213 -1.306615 18.009790 4.082315 35.968121 -0.000000 0.000001 -0.000000 -0.000000 0.000001 -0.000000 0.000001 -0.000000 -0.000002 0.300266 0.091238 3.406766 0.583738 -1.537136 -0.474475 0.571259 -1.543551 -0.475925 -12.227778 2.064777 -8.008347 8.163604 -5.030422 14.117199 0.000000 0.000000 -0.000000 0.000000 0.000000 -0.000000 0.000000 0.000000 -0.000000 0.889469 -1.203880 -4.961546 -44.314848 36.533541 -13.422660 0.000003 -56.427164 0.000005 -33.754771 -20.641399 26.689244 -1.642771 -9.603346 4.164128 3.780284 -1.591699 0.393590 -0.000001 -0.000003 0.000000 1.316806 -17.087906 3.534456 0.076847 1.027979 -8.550639 -0.000001 0.000003 -0.000001 -0.232381 2.078999 5.688073 0.077137 1.029859 -8.566632 0.000001 0.000001 -0.000001 -1.526940 16.403647 6.331395 0.076848 1.027959 -8.550645 0.000000 -0.000001 0.000001 -3.421896 29.649885 8.718326 0.068033 -3.027020 -9.055684 0.000001 -0.000000 -0.000000 0.000002 0.000001 0.000001 -1.404538 -9.743564 -5.740438 -78.664832 8.692271 14.799381 -0.000005 53.633333 0.000004 -18.714170 6.628209 -23.524900 -2.015544 11.570696 -4.220052 4.531688 1.768215 0.013344 -0.000000 -0.000000 0.000001 -4.630395 18.555623 15.000871 0.532599 -2.673492 22.529550 -0.000001 -0.000000 0.000002 -0.498950 1.629778 12.131935 0.532563 -2.673382 22.528682 0.000003 0.000001 0.000002 1.635675 -8.614766 11.280328 0.532555 -2.673398 22.528827 -0.000002 0.000001 0.000002 5.029381 -25.821358 10.144931 0.532627 -2.673531 22.530069 -0.000002 -0.000001 -0.000005 0.000000 -0.000000 -0.000001 0.000000 -0.000000 -0.000000 0.000000 -0.000000 -0.000000 0.000000 -0.000000 -0.000000 0.000000 -0.000000 -0.000000 0.000000 -0.000000 0.000000 -0.000000 0.000000 0.000000 0.000000 -0.000000 -0.000000 0.000000 -0.000000 0.000000 -0.000000 0.000000 0.000000 -0.000000 -0.000000 0.000000 -0.000000 -0.000000 0.000000 0.000000 -0.000000 0.000000 
3.910336 84.025101 -6.729340 86.109144 5.890724 -6.370041 0.000000 0.000000 -0.000000 -71.967361 -2.105165 32.970273 94.354064 -6.236457 1.813836 44.231000 -18.860111 -26.855315 0.000001 0.000001 -0.000000 0.000001 0.000001 -0.000000 -0.000001 0.000000 0.000001 -35.215858 -11.339429 -45.200747 38.910222 8.039884 -1.275010 19.457606 4.399350 35.554389 -0.000001 0.000001 -0.000001 -0.000001 0.000001 -0.000001 -0.000001 -0.000003 -0.000001 0.252393 0.098616 3.298813 0.479717 -1.532259 -0.310688 0.467733 -1.537475 -0.311946 -12.010659 2.230413 -8.187389 8.274065 -4.578241 14.155261 0.000001 0.000000 -0.000000 0.000001 0.000000 -0.000000 0.000001 0.000000 -0.000000 0.868423 -1.086001 -4.534076 -47.130228 35.045919 -10.921274 0.000013 -55.763184 -0.000002 -35.307515 -21.203550 26.955861 -1.642771 -9.603345 4.164128 3.780284 -1.591694 0.393592 -0.000000 -0.000003 0.000001 1.628412 -17.183595 4.592035 0.071654 0.992810 -8.256056 -0.000000 0.000003 -0.000001 -0.267841 1.952973 6.695993 0.071931 0.994715 -8.272051 0.000001 0.000000 0.000000 -1.631561 16.350686 6.702459 0.071655 0.992802 -8.256062 -0.000003 0.000001 -0.000005 -3.623142 29.584903 9.125543 0.062524 -3.062130 -8.761485 -0.000000 0.000000 0.000001 0.000001 0.000001 0.000000 -1.119864 -8.161182 -5.473746 -77.207598 6.002738 13.819263 -0.000004 55.828320 0.000005 -18.153000 7.263011 -23.812550 -2.015545 11.570699 -4.220048 4.531684 1.768216 0.013344 -0.000001 0.000001 -0.000000 -4.548360 18.605271 14.743534 0.521825 -2.647398 22.297441 -0.000000 -0.000000 0.000000 -0.491837 1.661946 11.884977 0.521774 -2.647253 22.296570 0.000001 0.000001 -0.000000 1.662373 -8.631074 11.458457 0.521782 -2.647283 22.296714 -0.000002 0.000005 -0.000001 5.114938 -25.827151 10.341336 0.521851 -2.647441 22.297967 0.000003 -0.000001 -0.000002 -0.000000 0.000001 0.000000 -0.000000 0.000000 0.000000 -0.000000 0.000000 0.000000 -0.000000 0.000000 0.000000 -0.000000 0.000000 0.000000 -0.000000 0.000000 0.000000 -0.000000 -0.000000 0.000000 -0.000000 0.000000 0.000000 -0.000000 0.000000 0.000000 -0.000000 -0.000000 0.000000 0.000000 0.000001 0.000000 0.000000 0.000001 0.000000 0.000000 0.000000 -0.000000 
